<?xml version='1.0' encoding='UTF-8' standalone='no'?>
<svg
  xmlns="http://www.w3.org/2000/svg"
  xmlns:svg="http://www.w3.org/2000/svg"
  xmlns:rdf="http://www.w3.org/1999/02/22-rdf-syntax-ns#"
  xmlns:cc="http://creativecommons.org/ns#"
  xmlns:dc="http://purl.org/dc/elements/1.1/"
  gorn="0"
  height="0.80000001in"
  id="Layer_1"
  version="1.2"
  viewBox="0 0 1076.2441 800.00001"
  width="1.0762441in">
  <metadata
    id="metadata24">
    <rdf:RDF>
      <cc:Work
        rdf:about="">
        <dc:format>image/svg+xml</dc:format>
        <dc:type
          rdf:resource="http://purl.org/dc/dcmitype/StillImage"
        />
      </cc:Work>
    </rdf:RDF>
  </metadata>
  <defs
    id="defs3142"
  />
  <!-- Generator: Adobe Illustrator 29.5.1, SVG Export Plug-In . SVG Version: 2.1.0 Build 141)  -->
  <g
    id="breadboard">
    <path
      d="M 38.121476,100.00169 C 38.121476,44.772977 82.893064,0 138.12316,0 v 0 c 0,0 800.01349,0 800.01349,0 55.2287,0 100.00165,44.772977 100.00165,100.00169 V 700.0118 c 0,55.22871 -44.77156,100.00168 -100.00165,100.00168 H 138.12316 C 82.894453,800.01348 38.121476,755.2419 38.121476,700.0118 V 100.00169 M 168.43895,700.0118 c 0,10.8724 8.81404,19.68505 19.68505,19.68505 10.87102,0 19.68506,-8.81403 19.68506,-19.68505 0,-10.87102 -8.81404,-19.68505 -19.68506,-19.68505 -10.87101,0 -19.68505,8.81403 -19.68505,19.68505 z m 100.00169,0 c 0,10.8724 8.81403,19.68505 19.68505,19.68505 10.87102,0 19.68505,-8.81403 19.68505,-19.68505 0,-10.87102 -8.81403,-19.68505 -19.68505,-19.68505 -10.87102,0 -19.68505,8.81403 -19.68505,19.68505 z m 100.00168,0 c 0,10.8724 8.81404,19.68505 19.68506,19.68505 10.87101,0 19.68505,-8.81403 19.68505,-19.68505 0,-10.87102 -8.81404,-19.68505 -19.68505,-19.68505 -10.87102,0 -19.68506,8.81403 -19.68506,19.68505 z m 100.00169,0 c 0,10.8724 8.81403,19.68505 19.68505,19.68505 10.87102,0 19.68506,-8.81403 19.68506,-19.68505 0,-10.87102 -8.81404,-19.68505 -19.68506,-19.68505 -10.87102,0 -19.68505,8.81403 -19.68505,19.68505 z m 100.00168,0 c 0,10.8724 8.81404,19.68505 19.68506,19.68505 10.87101,0 19.68505,-8.81403 19.68505,-19.68505 v 0 c 0,-10.87241 -8.81404,-19.68505 -19.68505,-19.68505 -10.87102,0 -19.68506,8.81403 -19.68506,19.68505 z m 100.00169,0 c 0,10.8724 8.81404,19.68505 19.68505,19.68505 10.87102,0 19.68506,-8.81403 19.68506,-19.68505 0,-10.87102 -8.81404,-19.68505 -19.68506,-19.68505 -10.87101,0 -19.68505,8.81403 -19.68505,19.68505 z m 100.00168,0 c 0,10.8724 8.81404,19.68505 19.68506,19.68505 10.87101,0 19.68505,-8.81403 19.68505,-19.68505 0,-10.87102 -8.81404,-19.68505 -19.68505,-19.68505 -10.87102,0 -19.68506,8.81403 -19.68506,19.68505 z m 100.00169,0 c 0,10.8724 8.81404,19.68505 19.68505,19.68505 10.87102,0 19.68506,-8.81403 19.68506,-19.68505 v 0 c 0,-10.87241 -8.81404,-19.68505 -19.68506,-19.68505 -10.87101,0 -19.68505,8.81403 -19.68505,19.68505 z M 88.909832,100.00169 c -0.04583,27.17962 21.950368,49.25083 49.129998,49.29666 27.17962,0.0458 49.25083,-21.95037 49.29666,-49.12999 0,-0.0556 0,-0.11112 0,-0.16667 0.0458,-27.179629 -21.95037,-49.250835 -49.13138,-49.296669 -27.17963,-0.04583 -49.250833,21.95037 -49.296667,49.131384 0,0.05556 0,0.109724 0,0.165285 z m 800.013488,0 c -0.0472,27.17962 21.94759,49.25221 49.12721,49.29944 27.17963,0.0472 49.25222,-21.94759 49.29945,-49.12722 0,-0.0569 0,-0.11528 0,-0.17222 0.0472,-27.179629 -21.9476,-49.252223 -49.12722,-49.299446 -27.17963,-0.04722 -49.25222,21.947592 -49.29944,49.127216 0,0.05695 0,0.11528 0,0.17223 z m -508.27663,55.00092 c 0,10.87241 8.81404,19.68506 19.68506,19.68506 10.87101,0 19.68505,-8.81404 19.68505,-19.68506 v 0 c 0,-10.8724 -8.81404,-19.68505 -19.68505,-19.68505 -10.87102,0 -19.68506,8.81404 -19.68506,19.68505 z m 137.79816,0 c 0,10.87241 8.81404,19.68506 19.68505,19.68506 10.87102,0 19.68506,-8.81404 19.68506,-19.68506 0,-10.87101 -8.81404,-19.68505 -19.68506,-19.68505 -10.87101,0 -19.68505,8.81404 -19.68505,19.68505 z m 137.79677,0 c 0,10.87241 8.81403,19.68506 19.68505,19.68506 10.87102,0 19.68506,-8.81404 19.68506,-19.68506 0,-10.87101 -8.81404,-19.68505 -19.68506,-19.68505 -10.87102,0 -19.68505,8.81404 -19.68505,19.68505 z"
      gorn="0.2.0"
      id="path1"
      stroke-width="13.8891"
    />
    <line
      fill="none"
      gorn="0.2.1"
      id="line1"
      stroke="#ffffff"
      stroke-linecap="round"
      stroke-width="12.0002"
      x1="292.37717"
      x2="323.87491"
      y1="395.00665"
      y2="395.00665"
    />
    <line
      fill="none"
      gorn="0.2.2"
      id="line2"
      stroke="#ffffff"
      stroke-linecap="round"
      stroke-width="12.0002"
      x1="333.12643"
      x2="293.12576"
      y1="545.00922"
      y2="545.00922"
    />
    <line
      fill="none"
      gorn="0.2.3.0.0.0"
      id="line3"
      stroke="#ffffff"
      stroke-linecap="round"
      stroke-width="6.0001"
      x1="953.33411"
      x2="850.96991"
      y1="568.11932"
      y2="568.11932"
    />
    <line
      fill="none"
      gorn="0.2.3.0.0.1"
      id="line4"
      stroke="#ffffff"
      stroke-linecap="round"
      stroke-width="6.0001"
      x1="850.96991"
      x2="850.96991"
      y1="568.11932"
      y2="524.81165"
    />
    <line
      fill="none"
      gorn="0.2.3.0.0.2"
      id="line5"
      stroke="#ffffff"
      stroke-linecap="round"
      stroke-width="6.0001"
      x1="850.96991"
      x2="850.96991"
      y1="375.20355"
      y2="327.95831"
    />
    <line
      fill="none"
      gorn="0.2.3.0.0.3"
      id="line6"
      stroke="#ffffff"
      stroke-linecap="round"
      stroke-width="6.0001"
      x1="850.96991"
      x2="953.33411"
      y1="327.95831"
      y2="327.95831"
    />
    <line
      fill="none"
      gorn="0.2.3.0.0.4"
      id="line7"
      stroke="#ffffff"
      stroke-linecap="round"
      stroke-width="6.0001"
      x1="1020.2645"
      x2="1020.2645"
      y1="532.68536"
      y2="367.3298"
    />
    <line
      fill="none"
      gorn="0.2.4.0.0.0"
      id="line8"
      stroke="#ffffff"
      stroke-linecap="round"
      stroke-width="6.0001"
      x1="122.92568"
      x2="225.28992"
      y1="331.89587"
      y2="331.89587"
    />
    <line
      fill="none"
      gorn="0.2.4.0.0.1"
      id="line9"
      stroke="#ffffff"
      stroke-linecap="round"
      stroke-width="6.0001"
      x1="225.28992"
      x2="225.28992"
      y1="331.89587"
      y2="375.20355"
    />
    <line
      fill="none"
      gorn="0.2.4.0.0.2"
      id="line10"
      stroke="#ffffff"
      stroke-linecap="round"
      stroke-width="6.0001"
      x1="225.28992"
      x2="225.28992"
      y1="524.81165"
      y2="572.05688"
    />
    <line
      fill="none"
      gorn="0.2.4.0.0.3"
      id="line11"
      stroke="#ffffff"
      stroke-linecap="round"
      stroke-width="6.0001"
      x1="225.28992"
      x2="122.92568"
      y1="572.05688"
      y2="572.05688"
    />
    <line
      fill="none"
      gorn="0.2.4.0.0.4"
      id="line12"
      stroke="#ffffff"
      stroke-linecap="round"
      stroke-width="6.0001"
      x1="55.995388"
      x2="55.995388"
      y1="367.3298"
      y2="532.68536"
    />
    <path
      d="m 192.62408,245.00413 12.50021,-10.00017 v 20.00034 l -12.50021,-10.00017"
      fill="none"
      gorn="0.2.5.0.0.0"
      id="path12"
      stroke="#ffffff"
      stroke-linecap="round"
      stroke-width="6.0001"
    />
    <rect
      fill="#ffffff"
      gorn="0.2.5.0.0.1"
      height="30.000507"
      id="rect12"
      width="5.0000844"
      x="187.62401"
      y="230.00388"
      stroke-width="13.8891"
    />
    <line
      fill="none"
      gorn="0.2.6.0.0.0"
      id="line13"
      stroke="#ffffff"
      stroke-linecap="round"
      stroke-width="8.00013"
      x1="473.01071"
      x2="473.01071"
      y1="605.12823"
      y2="494.89029"
    />
    <line
      fill="none"
      gorn="0.2.6.0.0.1"
      id="line14"
      stroke="#ffffff"
      stroke-linecap="round"
      stroke-width="8.00013"
      x1="473.01071"
      x2="583.24872"
      y1="494.89029"
      y2="494.89029"
    />
    <line
      fill="none"
      gorn="0.2.6.0.0.2"
      id="line15"
      stroke="#ffffff"
      stroke-linecap="round"
      stroke-width="8.00013"
      x1="583.24872"
      x2="583.24872"
      y1="494.89029"
      y2="605.12823"
    />
    <line
      fill="none"
      gorn="0.2.6.0.0.3"
      id="line16"
      stroke="#ffffff"
      stroke-linecap="round"
      stroke-width="8.00013"
      x1="583.24872"
      x2="473.01071"
      y1="605.12823"
      y2="605.12823"
    />
    <path
      d="m 547.81479,581.50564 c 0,6.52372 5.28759,11.81131 11.81131,11.81131 6.52372,0 11.81131,-5.28759 11.81131,-11.81131 v 0"
      fill="none"
      gorn="0.2.6.0.0.4"
      id="path16"
      stroke="#ffffff"
      stroke-width="8.00013"
    />
    <line
      fill="none"
      gorn="0.2.6.0.0.5"
      id="line17"
      stroke="#ffffff"
      stroke-linecap="round"
      stroke-width="8.00013"
      x1="547.81482"
      x2="571.43738"
      y1="581.50562"
      y2="581.50562"
    />
    <line
      fill="none"
      gorn="0.2.7.0.0.0"
      id="line18"
      stroke="#ffffff"
      stroke-linecap="round"
      stroke-width="8.00013"
      x1="758.25171"
      x2="648.01373"
      y1="604.81299"
      y2="604.81299"
    />
    <line
      fill="none"
      gorn="0.2.7.0.0.1"
      id="line19"
      stroke="#ffffff"
      stroke-linecap="round"
      stroke-width="8.00013"
      x1="648.01373"
      x2="758.25171"
      y1="455.2049"
      y2="455.2049"
    />
    <circle
      cx="138.12317"
      cy="100.00169"
      fill="none"
      gorn="0.2.8"
      id="circle20"
      r="78.741608"
      stroke="#ffffff"
      stroke-width="8.00013"
    />
    <circle
      cx="938.13666"
      cy="100.00169"
      fill="none"
      gorn="0.2.9"
      id="circle21"
      r="78.741608"
      stroke="#ffffff"
      stroke-width="8.00013"
    />
    <line
      fill="none"
      gorn="0.2.10.0.0.0"
      id="line21"
      stroke="#ffffff"
      stroke-linecap="round"
      stroke-width="8.00013"
      x1="744.82642"
      x2="744.82642"
      y1="288.86319"
      y2="68.38726"
    />
    <line
      fill="none"
      gorn="0.2.10.0.0.1"
      id="line22"
      stroke="#ffffff"
      stroke-linecap="round"
      stroke-width="8.00013"
      x1="744.82642"
      x2="744.82642"
      y1="68.38726"
      y2="13.268279"
    />
    <line
      fill="none"
      gorn="0.2.10.0.0.2"
      id="line23"
      stroke="#ffffff"
      stroke-linecap="round"
      stroke-width="8.00013"
      x1="744.82642"
      x2="331.43338"
      y1="13.268279"
      y2="13.268279"
    />
    <line
      fill="none"
      gorn="0.2.10.0.0.3"
      id="line24"
      stroke="#ffffff"
      stroke-linecap="round"
      stroke-width="8.00013"
      x1="331.43338"
      x2="331.43338"
      y1="13.268279"
      y2="68.38726"
    />
    <line
      fill="none"
      gorn="0.2.10.0.0.4"
      id="line25"
      stroke="#ffffff"
      stroke-linecap="round"
      stroke-width="8.00013"
      x1="331.43338"
      x2="331.43338"
      y1="68.38726"
      y2="288.86319"
    />
    <line
      fill="none"
      gorn="0.2.10.0.0.5"
      id="line26"
      stroke="#ffffff"
      stroke-linecap="round"
      stroke-width="8.00013"
      x1="331.43338"
      x2="744.82642"
      y1="288.86319"
      y2="288.86319"
    />
    <line
      fill="none"
      gorn="0.2.10.0.0.6"
      id="line27"
      stroke="#ffffff"
      stroke-linecap="round"
      stroke-width="8.00013"
      x1="744.82642"
      x2="331.43338"
      y1="68.38726"
      y2="68.38726"
    />
    <rect
      fill="#9a916c"
      gorn="0.2.11"
      height="42.322937"
      id="rect5"
      stroke-width="13.8891"
      width="39.371498"
      x="288.44098"
      y="407.31104"
    />
    <rect
      fill="#9a916c"
      gorn="0.2.12"
      height="42.322937"
      id="rect6"
      stroke-width="13.8891"
      width="39.371498"
      x="288.43958"
      y="340.37796"
    />
    <rect
      fill="#9a916c"
      gorn="0.2.13"
      height="48.820271"
      id="rect7"
      stroke-width="13.8891"
      width="59.056549"
      x="283.59784"
      y="483.19843"
    />
    <rect
      fill="#9a916c"
      gorn="0.2.14"
      height="48.820271"
      id="rect8"
      stroke-width="13.8891"
      width="59.056549"
      x="283.59784"
      y="558.00244"
    />
    <rect
      fill="#9a916c"
      gorn="0.2.15"
      height="23.62262"
      id="rect3110"
      stroke-width="13.8891"
      width="61.024643"
      x="808.65387"
      y="497.2514"
    />
    <rect
      fill="#9a916c"
      gorn="0.2.16"
      height="23.62262"
      id="rect3111"
      stroke-width="13.8891"
      width="61.024643"
      x="808.65387"
      y="457.88132"
    />
    <rect
      fill="#9a916c"
      gorn="0.2.17"
      height="23.62262"
      id="rect3112"
      stroke-width="13.8891"
      width="61.024643"
      x="808.65387"
      y="418.5112"
    />
    <rect
      fill="#9a916c"
      gorn="0.2.18"
      height="23.62262"
      id="rect3113"
      stroke-width="13.8891"
      width="61.024643"
      x="808.65387"
      y="379.14111"
    />
    <rect
      fill="#9a916c"
      gorn="0.2.19"
      height="47.245239"
      id="rect13"
      stroke-width="13.8891"
      width="70.867859"
      x="957.26196"
      y="536.62018"
    />
    <rect
      fill="#9a916c"
      gorn="0.2.20"
      height="47.245239"
      id="rect14"
      stroke-width="13.8891"
      width="70.867859"
      x="957.26196"
      y="316.14697"
    />
    <rect
      fill="#9a916c"
      gorn="0.2.21"
      height="23.62262"
      id="rect3114"
      stroke-width="13.8891"
      width="61.024643"
      x="206.58958"
      y="379.13971"
    />
    <rect
      fill="#9a916c"
      gorn="0.2.22"
      height="23.62262"
      id="rect3115"
      stroke-width="13.8891"
      width="61.024643"
      x="206.58958"
      y="418.5112"
    />
    <rect
      fill="#9a916c"
      gorn="0.2.23"
      height="23.62262"
      id="rect3116"
      stroke-width="13.8891"
      width="61.024643"
      x="206.58958"
      y="457.88132"
    />
    <rect
      fill="#9a916c"
      gorn="0.2.24"
      height="23.62262"
      id="rect3117"
      stroke-width="13.8891"
      width="61.024643"
      x="206.58958"
      y="497.25284"
    />
    <rect
      fill="#9a916c"
      gorn="0.2.25"
      height="47.245239"
      id="rect19"
      stroke-width="13.8891"
      width="70.867859"
      x="48.121643"
      y="316.14697"
    />
    <rect
      fill="#9a916c"
      gorn="0.2.26"
      height="47.245239"
      id="rect20"
      stroke-width="13.8891"
      width="70.867859"
      x="48.121643"
      y="536.62292"
    />
    <rect
      fill="#9a916c"
      gorn="0.2.27"
      height="31.496363"
      id="rect21"
      stroke-width="13.8891"
      width="31.496363"
      x="211.90356"
      y="229.25525"
    />
    <rect
      fill="#9a916c"
      gorn="0.2.28"
      height="31.496363"
      id="rect22"
      stroke-width="13.8891"
      width="31.496363"
      x="152.84702"
      y="229.25665"
    />
    <rect
      fill="#9a916c"
      gorn="0.2.29"
      height="39.371498"
      id="rect23"
      rx="19.685055"
      ry="19.685055"
      stroke-width="13.8891"
      width="39.37011"
      x="58.437096"
      y="195.31857"
    />
    <rect
      fill="#9a916c"
      gorn="0.2.30"
      height="39.371498"
      id="rect24"
      rx="19.685055"
      ry="19.685055"
      stroke-width="13.8891"
      width="39.37011"
      x="968.45245"
      y="225.31908"
    />
    <rect
      fill="#9a916c"
      gorn="0.2.31"
      height="9.8432217"
      id="rect25"
      stroke-width="13.8891"
      width="39.371498"
      x="591.63776"
      y="584.45435"
    />
    <rect
      fill="#9a916c"
      gorn="0.2.32"
      height="9.8432217"
      id="rect26"
      stroke-width="13.8891"
      width="39.37011"
      x="591.63916"
      y="564.77618"
    />
    <rect
      fill="#9a916c"
      gorn="0.2.33"
      height="9.8432217"
      id="rect27"
      stroke-width="13.8891"
      width="39.37011"
      x="591.63916"
      y="545.08417"
    />
    <rect
      fill="#9a916c"
      gorn="0.2.34"
      height="9.8432217"
      id="rect1"
      stroke-width="13.8891"
      width="39.371498"
      x="591.63916"
      y="525.40332"
    />
    <rect
      fill="#9a916c"
      gorn="0.2.35"
      height="9.8432217"
      id="rect2"
      stroke-width="13.8891"
      width="39.37011"
      x="591.63776"
      y="505.71408"
    />
    <rect
      fill="#9a916c"
      gorn="0.2.36"
      height="9.8432217"
      id="rect3"
      stroke-width="13.8891"
      width="39.37011"
      x="425.25021"
      y="505.71686"
    />
    <rect
      fill="#9a916c"
      gorn="0.2.37"
      height="9.8432217"
      id="rect4"
      stroke-width="13.8891"
      width="39.371498"
      x="425.24881"
      y="525.40332"
    />
    <rect
      fill="#9a916c"
      gorn="0.2.38"
      height="9.8432217"
      id="rect9"
      stroke-width="13.8891"
      width="39.37011"
      x="425.24881"
      y="545.08838"
    />
    <rect
      fill="#9a916c"
      gorn="0.2.39"
      height="9.8432217"
      id="rect10"
      stroke-width="13.8891"
      width="39.37011"
      x="425.25021"
      y="564.77338"
    />
    <rect
      fill="#9a916c"
      gorn="0.2.40"
      height="9.8432217"
      id="rect11"
      stroke-width="13.8891"
      width="39.371498"
      x="425.24881"
      y="584.45844"
    />
    <rect
      fill="#9a916c"
      gorn="0.2.41"
      height="125.98685"
      id="rect15"
      stroke-width="13.8891"
      width="70.867859"
      x="392.45801"
      y="297.01334"
    />
    <rect
      fill="#9a916c"
      gorn="0.2.42"
      height="125.98685"
      id="rect16"
      stroke-width="13.8891"
      width="70.867859"
      x="612.93396"
      y="297.01334"
    />
    <rect
      fill="#9a916c"
      gorn="0.2.43"
      height="17.716965"
      id="rect17"
      stroke-width="13.8891"
      width="35.433929"
      x="651.94708"
      y="469.96765"
    />
    <rect
      fill="#9a916c"
      gorn="0.2.44"
      height="17.716965"
      id="rect18"
      stroke-width="13.8891"
      width="35.433929"
      x="651.95404"
      y="505.40298"
    />
    <rect
      fill="#9a916c"
      gorn="0.2.45"
      height="17.716965"
      id="rect3118"
      stroke-width="13.8891"
      width="35.433929"
      x="651.94849"
      y="536.89935"
    />
    <rect
      fill="#9a916c"
      gorn="0.2.46"
      height="17.716965"
      id="rect3119"
      stroke-width="13.8891"
      width="35.433929"
      x="651.95264"
      y="572.33185"
    />
    <rect
      fill="#9a916c"
      gorn="0.2.47"
      height="17.716965"
      id="rect3120"
      stroke-width="13.8891"
      width="35.433929"
      x="718.88434"
      y="572.33325"
    />
    <rect
      fill="#9a916c"
      gorn="0.2.48"
      height="17.716965"
      id="rect3121"
      stroke-width="13.8891"
      width="35.433929"
      x="718.87878"
      y="536.89789"
    />
    <rect
      fill="#9a916c"
      gorn="0.2.49"
      height="17.716965"
      id="rect3122"
      stroke-width="13.8891"
      width="35.433929"
      x="718.88434"
      y="505.40161"
    />
    <rect
      fill="#9a916c"
      gorn="0.2.50"
      height="17.716965"
      id="rect3123"
      stroke-width="13.8891"
      width="35.433929"
      x="718.87878"
      y="469.96765"
    />
    <rect
      fill="#9a916c"
      gorn="0.2.51"
      height="39.371498"
      id="rect3124"
      stroke-width="13.8891"
      width="42.322937"
      x="138.49678"
      y="275.31992"
    />
    <rect
      fill="#9a916c"
      gorn="0.2.52"
      height="39.371498"
      id="rect3125"
      stroke-width="13.8891"
      width="42.322937"
      x="205.42706"
      y="275.31992"
    />
    <circle
      cx="138.12317"
      cy="100.00169"
      fill="none"
      gorn="0.2.53"
      id="circle55"
      r="59.213497"
      stroke="#9a916c"
      stroke-width="20.0003"
    />
    <circle
      cx="938.13666"
      cy="100.00169"
      fill="none"
      gorn="0.2.54"
      id="circle56"
      r="59.213497"
      stroke="#9a916c"
      stroke-width="20.0003"
    />
    <circle
      cx="400.33313"
      cy="155.00261"
      fill="none"
      gorn="0.2.55"
      id="circle3117"
      r="31.343584"
      stroke="#9a916c"
      stroke-width="23.3157"
    />
    <circle
      cx="538.12994"
      cy="155.00261"
      fill="none"
      gorn="0.2.56"
      id="circle3118"
      r="31.343584"
      stroke="#9a916c"
      stroke-width="23.3157"
    />
    <circle
      cx="675.9267"
      cy="155.00261"
      fill="none"
      gorn="0.2.57"
      id="circle3119"
      r="31.343584"
      stroke="#9a916c"
      stroke-width="23.3157"
    />
    <path
      d="m 323.87629,367.54092 v 54.93148 c 0,2.22226 -1.80558,4.02784 -4.04173,4.02784 h -23.43095 c -2.22226,0 -4.02785,-1.80558 -4.02785,-4.02784 v -54.93148 c 0,-2.22226 1.80559,-4.02785 4.02785,-4.02785 h 23.43095 c 2.23615,0 4.04173,1.80559 4.04173,4.02785 z"
      fill="#dcdcdc"
      gorn="0.2.58"
      id="path3119"
      stroke-width="13.8891"
    />
    <rect
      fill="#6e554b"
      gorn="0.2.59"
      height="31.50053"
      id="rect3126"
      stroke-width="13.8891"
      width="31.50053"
      x="292.37576"
      y="379.24945"
    />
    <path
      d="m 288.52153,580.44728 v -70.87619 c 0,-2.1667 1.76392,-3.93062 3.93062,-3.93062 h 41.34792 c 2.1667,0 3.93062,1.76392 3.93062,3.93062 v 70.8623 c 0,2.1806 -1.76392,3.93063 -3.93062,3.93063 h -41.34792 c -2.1667,0.0139 -3.93062,-1.75003 -3.93062,-3.91674 z"
      fill="#dcdcdc"
      gorn="0.2.60"
      id="path3120"
      stroke-width="13.8891"
    />
    <rect
      fill="#6e554b"
      gorn="0.2.61"
      height="49.209164"
      id="rect3127"
      stroke-width="13.8891"
      width="49.209164"
      x="288.52151"
      y="520.4046"
    />
    <path
      d="M 876.25783,333.33756 H 1013.7601 V 566.67483 H 876.25783 V 546.98978 H 856.81305 V 353.02401 h 19.44478 z"
      gorn="0.2.62"
      id="path3121"
      stroke-width="13.8891"
    />
    <path
      d="m 886.10105,537.14655 v -19.44477 h 70.71369 v 19.44477 z"
      fill="#3f3f3f"
      gorn="0.2.63"
      id="path3122"
      stroke-width="13.8891"
    />
    <path
      d="m 886.10105,382.31061 v -19.44477 h 70.71369 v 19.44477 z"
      fill="#3f3f3f"
      gorn="0.2.64"
      id="path3123"
      stroke-width="13.8891"
    />
    <path
      d="m 823.52638,476.80665 v -14.22941 h 49.9064 v 14.22941 z"
      fill="#dcdcdc"
      gorn="0.2.65"
      id="path3124"
      stroke-width="13.8891"
    />
    <path
      d="m 823.52638,516.17676 v -14.22941 h 49.9064 v 14.22941 z"
      fill="#dcdcdc"
      gorn="0.2.66"
      id="path3125"
      stroke-width="13.8891"
    />
    <path
      d="m 823.52638,437.43654 v -14.22941 h 49.9064 v 14.22941 z"
      fill="#dcdcdc"
      gorn="0.2.67"
      id="path3126"
      stroke-width="13.8891"
    />
    <path
      d="m 823.52638,398.06504 v -14.2294 h 49.9064 v 14.2294 z"
      fill="#dcdcdc"
      gorn="0.2.68"
      id="path3127"
      stroke-width="13.8891"
    />
    <path
      d="M 200.00337,566.67622 H 62.501053 V 333.33895 H 200.00337 v 19.68506 h 19.44477 v 193.96577 h -19.44477 z"
      gorn="0.2.69"
      id="path3128"
      stroke-width="13.8891"
    />
    <path
      d="M 190.16015,362.86723 V 382.312 h -70.71369 v -19.44477 z"
      fill="#3f3f3f"
      gorn="0.2.70"
      id="path3129"
      stroke-width="13.8891"
    />
    <path
      d="m 190.16015,517.70317 v 19.44477 h -70.71369 v -19.44477 z"
      fill="#3f3f3f"
      gorn="0.2.71"
      id="path3130"
      stroke-width="13.8891"
    />
    <path
      d="m 252.73343,423.20713 v 14.22941 h -49.9064 v -14.22941 z"
      fill="#dcdcdc"
      gorn="0.2.72"
      id="path3131"
      stroke-width="13.8891"
    />
    <path
      d="m 252.73343,383.83703 v 14.2294 h -49.9064 v -14.2294 z"
      fill="#dcdcdc"
      gorn="0.2.73"
      id="path3132"
      stroke-width="13.8891"
    />
    <path
      d="m 252.73343,462.57863 v 14.22941 h -49.9064 v -14.22941 z"
      fill="#dcdcdc"
      gorn="0.2.74"
      id="path3133"
      stroke-width="13.8891"
    />
    <path
      d="m 252.73343,501.94874 v 14.2294 h -49.9064 v -14.2294 z"
      fill="#dcdcdc"
      gorn="0.2.75"
      id="path3134"
      stroke-width="13.8891"
    />
    <path
      d="m 170.65843,229.25386 h 54.93148 c 2.22226,0 4.02785,1.80559 4.02785,4.02785 v 23.44484 c 0,2.22226 -1.80559,4.02785 -4.02785,4.02785 h -54.93148 c -2.22226,0 -4.02784,-1.80559 -4.02784,-4.02785 V 233.2956 c 0,-2.23615 1.80558,-4.04174 4.02784,-4.04174 z"
      fill="#dcdcdc"
      gorn="0.2.76"
      id="path3135"
      stroke-width="13.8891"
    />
    <rect
      fill="#00ff00"
      gorn="0.2.77"
      height="31.50053"
      id="rect3135"
      stroke-width="13.8891"
      width="31.50053"
      x="182.37531"
      y="229.25388"
    />
    <circle
      cx="198.13112"
      cy="245.00412"
      fill="#00b400"
      gorn="0.2.78"
      id="circle3135"
      r="4.9167495"
      stroke-width="13.8891"
    />
    <rect
      fill="#dcdcdc"
      gorn="0.2.79"
      height="9.4446039"
      id="rect3362"
      stroke-width="13.8891"
      width="154.33594"
      x="450.96176"
      y="504.5863"
    />
    <rect
      fill="#dcdcdc"
      gorn="0.2.80"
      height="9.4446039"
      id="rect3128"
      stroke-width="13.8891"
      width="154.33594"
      x="450.96176"
      y="585.68628"
    />
    <rect
      fill="#dcdcdc"
      gorn="0.2.81"
      height="9.4446039"
      id="rect3129"
      stroke-width="13.8891"
      width="154.33594"
      x="450.96176"
      y="565.21924"
    />
    <rect
      fill="#dcdcdc"
      gorn="0.2.82"
      height="9.4446039"
      id="rect3130"
      stroke-width="13.8891"
      width="154.33594"
      x="450.96176"
      y="544.74109"
    />
    <rect
      fill="#dcdcdc"
      gorn="0.2.83"
      height="9.4446039"
      id="rect3131"
      stroke-width="13.8891"
      width="154.33594"
      x="450.96176"
      y="524.27411"
    />
    <path
      d="m 486.84015,492.95414 h 81.89027 c 3.47784,0 6.30011,2.82227 6.30011,6.30011 v 101.51004 c 0,3.47784 -2.82227,6.30011 -6.30011,6.30011 h -81.89027 c -3.47784,0 -6.30011,-2.82227 -6.30011,-6.30011 V 499.25425 c 0,-3.47784 2.82227,-6.30011 6.30011,-6.30011 z"
      fill="#333333"
      gorn="0.2.84"
      id="path11"
      stroke-width="13.8891"
    />
    <circle
      cx="559.27472"
      cy="591.3197"
      gorn="0.2.85"
      id="circle13"
      r="7.8779106"
      stroke-width="13.8891"
    />
    <path
      d="M 655.0166,420.00708 H 420.91821 c -4.29452,0 -7.79041,-2.13615 -7.79041,-4.77647 V 305.56487 c 0,-2.62365 3.49589,-4.7598 7.79041,-4.7598 H 655.0166 c 4.32229,0 7.79041,2.13615 7.79041,4.7598 v 109.66574 c 0.0278,2.64032 -3.46812,4.77647 -7.78902,4.77647 z"
      fill="#dcdcdc"
      gorn="0.2.86"
      id="path9433"
      stroke-width="13.8891"
    />
    <rect
      fill="#333333"
      gorn="0.2.87"
      height="119.20201"
      id="rect9435"
      stroke-width="13.8891"
      width="171.66539"
      x="452.13541"
      y="300.80508"
    />
    <rect
      fill="#dcdcdc"
      gorn="0.2.88"
      height="25.597654"
      id="rect3137"
      stroke-width="13.8891"
      width="62.987171"
      x="671.6391"
      y="467.01483"
    />
    <rect
      fill="#dcdcdc"
      gorn="0.2.89"
      height="19.680887"
      id="rect3138"
      stroke-width="13.8891"
      width="62.987171"
      x="671.6391"
      y="504.41824"
    />
    <rect
      fill="#dcdcdc"
      gorn="0.2.90"
      height="19.680887"
      id="rect3139"
      stroke-width="13.8891"
      width="62.987171"
      x="671.6391"
      y="535.91876"
    />
    <rect
      fill="#dcdcdc"
      gorn="0.2.91"
      height="25.597654"
      id="rect3140"
      stroke-width="13.8891"
      width="62.987171"
      x="671.6391"
      y="567.4054"
    />
    <rect
      fill="#303030"
      gorn="0.2.92"
      height="125.98824"
      id="rect3141"
      stroke-width="13.8891"
      width="39.375664"
      x="683.44482"
      y="467.01483"
    />
    <path
      d="m 220.58983,310.75524 h -54.93148 c -2.22226,0 -4.02785,-1.80559 -4.02785,-4.04174 v -23.43095 c 0,-2.22226 1.80559,-4.02784 4.02785,-4.02784 h 54.93148 c 2.22226,0 4.02784,1.80558 4.02784,4.02784 v 23.43095 c 0,2.23615 -1.80558,4.04174 -4.02784,4.04174 z"
      fill="#dcdcdc"
      gorn="0.2.93"
      id="path3141"
      stroke-width="13.8891"
    />
    <rect
      fill="#333333"
      gorn="0.2.94"
      height="31.50053"
      id="rect3142"
      stroke-width="13.8891"
      width="31.50053"
      x="177.38077"
      y="279.25473"
    />
    <path
      d="m 740.15553,329.56389 c -1.97225,0.31945 -2.54171,1.38891 -3.37506,3.97229 -0.62501,1.97225 -4.81952,15.12525 -4.81952,15.12525 0,0 -3.45839,9.16682 1.43058,15.97249 0.66668,0.91669 1.41669,1.86115 2.22226,2.8195 -0.95835,-0.80557 -1.90281,-1.55559 -2.81949,-2.20837 -6.80567,-4.88898 -15.9725,-1.40281 -15.9725,-1.40281 0,0 -13.15299,4.20841 -15.12525,4.84731 -2.58338,0.83335 -3.65284,1.38891 -3.9584,3.37505 -0.31945,1.97226 0.52779,2.83339 2.73616,4.41675 1.66669,1.20835 12.8891,9.26404 12.8891,9.26404 0,0 7.65291,6.1251 15.63916,3.56951 1.06946,-0.34723 2.20837,-0.76391 3.36116,-1.23614 -1.05557,0.66668 -2.06948,1.33336 -2.97227,2.00004 -6.75011,4.9723 -6.27788,14.75025 -6.27788,14.75025 0,0 -0.0556,13.81967 -0.0556,15.87526 0,2.70838 0.19445,3.90285 1.98615,4.81953 1.7778,0.90279 2.86115,0.37501 5.05564,-1.23613 1.66669,-1.22225 12.79188,-9.40294 12.79188,-9.40294 0,0 8.19458,-5.38898 8.22236,-13.76412 0,-1.12502 -0.0417,-2.33337 -0.13889,-3.5695 0.30556,1.20835 0.6389,2.37504 0.98613,3.4445 2.63893,7.95847 12.09742,10.52795 12.09742,10.52795 0,0 13.11133,4.30563 15.0697,4.95842 2.58338,0.84724 3.77784,1.01391 5.19453,-0.40278 1.41669,-1.4167 1.25002,-2.61116 0.3889,-5.19454 -0.6389,-1.95836 -4.9862,-15.06969 -4.9862,-15.06969 0,0 -2.59726,-9.4585 -10.55573,-12.06965 -1.06946,-0.34723 -2.22226,-0.68057 -3.43061,-0.97224 1.25002,0.0833 2.44448,0.125 3.5695,0.125 8.37514,-0.0556 13.75023,-8.25014 13.75023,-8.25014 0,0 8.16681,-11.13908 9.37516,-12.80577 1.61114,-2.19448 2.13893,-3.27783 1.23613,-5.06953 -0.91668,-1.77642 -2.11114,-1.98614 -4.81952,-1.97226 -2.06948,0.0139 -15.87527,0.0833 -15.87527,0.0833 0,0 -9.79183,-0.45834 -14.75025,6.30566 -0.66668,0.90279 -1.33336,1.9167 -1.98614,2.97227 0.47223,-1.15279 0.8889,-2.2917 1.22224,-3.36116 2.54171,-7.98625 -3.59728,-15.62527 -3.59728,-15.62527 0,0 -8.06958,-11.20852 -9.27794,-12.87521 -1.59725,-2.20837 -2.45837,-3.04172 -4.43063,-2.73616 z m -10.16684,47.57024 c 0.23612,-1.50002 3.44451,-2.25003 7.1529,-1.66669 3.7084,0.58334 6.52789,2.27782 6.29177,3.79173 -0.23611,1.50003 -3.4445,2.25004 -7.15289,1.6667 -3.72229,-0.58335 -6.54178,-2.27782 -6.29178,-3.79174 z m 9.84739,19.292 c -1.36113,-0.69446 -1.08335,-3.97229 0.62501,-7.31957 1.70836,-3.34728 4.19452,-5.51398 5.54176,-4.81953 1.36114,0.69446 1.08335,3.97229 -0.62501,7.31957 -1.70836,3.36117 -4.18062,5.51398 -5.54176,4.81953 z m 18.52809,-10.16684 c 2.65282,2.65282 3.94451,5.68065 2.86116,6.764 -1.08335,1.06946 -4.11118,-0.20834 -6.764,-2.86116 -2.66671,-2.65282 -3.9584,-5.68065 -2.87505,-6.764 1.08335,-1.08335 4.11118,0.19445 6.77789,2.86116 z m 6.23622,-14.63914 c 0.69445,1.36114 -1.45836,3.84729 -4.80564,5.55565 -3.36117,1.70836 -6.639,2.00004 -7.33346,0.6389 -0.69445,-1.36113 1.45836,-3.84729 4.80564,-5.55565 3.36117,-1.70836 6.639,-2.00003 7.33346,-0.6389 z m -15.51415,-3.52783 c 0.58334,3.70839 -0.15278,6.91678 -1.65281,7.16678 -1.51391,0.23612 -3.20839,-2.58337 -3.80562,-6.29177 -0.59723,-3.7084 0.15278,-6.91678 1.65281,-7.1529 1.51391,-0.25 3.20839,2.56949 3.80562,6.27789 z"
      fill="#dcdcdc"
      gorn="0.2.95"
      id="path3142"
      stroke-width="13.8891"
    />
    <rect
      fill="#333333"
      gorn="0.2.96"
      height="251.30563"
      id="rect4160"
      stroke-width="13.8891"
      width="413.39307"
      x="331.43338"
      y="37.560356"
    />
    <polygon
      gorn="0.2.97.0.0"
      id="polygon3352"
      points="37.3275,0.9555 30.2416,0.9555 30.2416,2.7094 27.4067,2.7094 27.4067,0.9555 23.8638,0.9555 23.8638,3.7904 43.7053,3.7904 43.7053,0.9555 40.1624,0.9555 40.1624,2.7094 37.3275,2.7094 "
      transform="scale(13.889123)"
    />
    <circle
      cx="675.92249"
      cy="151.07477"
      fill="#b4b4b4"
      gorn="0.2.98"
      id="circle9"
      r="51.180031"
      stroke-width="13.8891"
    />
    <circle
      cx="538.13129"
      cy="151.07477"
      fill="#b4b4b4"
      gorn="0.2.99"
      id="circle11"
      r="51.180031"
      stroke-width="13.8891"
    />
    <rect
      gorn="0.2.100"
      height="39.374275"
      id="rect3132"
      stroke-width="13.8891"
      width="102.36145"
      x="622.78412"
      y="229.81082"
    />
    <polygon
      gorn="0.2.101.0.0"
      id="polygon17"
      points="47.2486,2.7094 47.2486,0.9555 40.1628,0.9555 40.1628,2.7094 37.3279,2.7094 37.3279,0.9555 33.785,0.9555 33.785,3.7904 53.6265,3.7904 53.6265,0.9555 50.0836,0.9555 50.0836,2.7094 "
      transform="scale(13.889123)"
    />
    <path
      d="m 674.71415,192.15741 22.81983,-6.11122 -7.13901,-26.62545 36.56867,-9.80572 c -0.11111,-3.91673 -0.54167,-7.84735 -1.59725,-11.79186 -1.05557,-3.94451 -2.65282,-7.56958 -4.51396,-11.01408 l -36.56867,9.80572 -7.13901,-26.62545 -22.81983,6.11122 7.13901,26.62545 -36.56867,9.80572 c 0.11111,3.90284 0.54167,7.84735 1.59724,11.77797 1.05558,3.93063 2.65283,7.58347 4.51397,11.02797 l 36.56867,-9.80572 7.13901,26.62406 z"
      fill="#646464"
      gorn="0.2.102"
      id="path23"
      stroke-width="13.8891"
    />
    <path
      d="m 573.1041,172.67235 6.11122,-22.81982 -26.62545,-7.13901 9.80572,-36.56868 c -3.4445,-1.86114 -7.06956,-3.45839 -11.01407,-4.51396 -3.94451,-1.05557 -7.88903,-1.48614 -11.79187,-1.59725 l -9.80572,36.56867 -26.62545,-7.13901 -6.11121,22.81983 26.62545,7.13901 -9.80573,36.56867 c 3.44451,1.86115 7.06957,3.4584 11.01408,4.51397 3.94451,1.05557 7.88902,1.48613 11.79186,1.59725 l 9.81961,-36.56867 c 0,0 26.61156,7.139 26.61156,7.139 z"
      fill="#646464"
      gorn="0.2.103"
      id="path25"
      stroke-width="13.8891"
    />
    <circle
      cx="400.33313"
      cy="151.07477"
      fill="#b4b4b4"
      gorn="0.2.104"
      id="circle3344"
      r="51.180031"
      stroke-width="13.8891"
    />
    <rect
      gorn="0.2.105"
      height="39.374275"
      id="rect3346"
      stroke-width="13.8891"
      width="102.36145"
      x="347.19336"
      y="229.81082"
    />
    <path
      d="m 399.12617,192.15741 22.81983,-6.11122 -7.13901,-26.62545 36.56867,-9.80572 c -0.11111,-3.91673 -0.54167,-7.84735 -1.59725,-11.79186 -1.05557,-3.94451 -2.65282,-7.56958 -4.51396,-11.01408 l -36.56867,9.80572 -7.13901,-26.62545 -22.81983,6.11122 7.13901,26.62545 -36.56867,9.80572 c 0.11111,3.90284 0.54167,7.84735 1.59725,11.77797 1.05557,3.93063 2.65282,7.58347 4.51396,11.02797 l 36.56867,-9.80572 z"
      fill="#646464"
      gorn="0.2.106"
      id="path3350"
      stroke-width="13.8891"
    />
    <rect
      gorn="0.2.107"
      height="39.374275"
      id="rect3356"
      stroke-width="13.8891"
      width="102.36145"
      x="484.98175"
      y="229.81082"
    />
    <path
      aria-label="on"
      d="m 172.87855,207.42837 v -9.28897 q 0,-1.57822 0.72147,-2.93099 0.72148,-1.35276 1.30767,-1.89386 0.5862,-0.54111 1.98406,-1.7135 1.84877,-1.62332 4.37393,-1.62332 h 5.63651 q 0.5862,0 1.1273,0.0902 0.54111,0.0451 1.08221,0.31565 0.54111,0.22546 0.85675,0.36074 0.31565,0.0902 0.85675,0.5411 0.54111,0.40583 0.67639,0.54111 0.18036,0.0902 0.76656,0.63129 0.63129,0.49601 0.67638,0.5411 2.38988,2.07424 2.38988,5.1405 v 9.28897 q 0,0.72148 -0.0902,1.35277 -0.0902,0.58619 -0.40583,1.17239 -0.31564,0.5862 -0.49601,0.94693 -0.13528,0.31565 -0.72148,0.90185 -0.58619,0.58619 -0.72147,0.72147 -0.0902,0.13528 -0.85675,0.81166 l -0.76656,0.63129 q -1.84878,1.62331 -4.37394,1.62331 h -5.63651 q -0.72147,0 -1.39786,-0.13527 -0.63128,-0.18037 -1.08221,-0.31565 -0.45092,-0.18037 -1.08221,-0.5862 -0.58619,-0.40583 -0.85675,-0.58619 -0.22546,-0.18037 -0.85675,-0.72148 -0.58619,-0.5411 -0.76656,-0.67638 -2.34479,-1.93896 -2.34479,-5.1405 z m 4.5543,0 q 0,0.54111 0.27055,1.03712 0.27056,0.49601 0.54111,0.76657 0.31564,0.27055 0.85675,0.72147 0.5411,0.40583 0.72147,0.54111 0.67638,0.5411 1.44295,0.5411 h 5.63651 q 0.63129,0 1.1273,-0.27055 0.49602,-0.27055 1.1724,-0.94694 0.67638,-0.67638 0.76656,-0.72147 0.81166,-0.63129 0.81166,-1.66841 v -9.28897 q 0,-1.17239 -1.35276,-2.38988 -1.35276,-1.21749 -2.52516,-1.21749 h -5.63651 q -0.63129,0 -1.1273,0.27055 -0.49602,0.27056 -1.1724,0.94694 -0.67638,0.67638 -0.76656,0.72147 -0.76657,0.63129 -0.76657,1.66841 z m 28.04727,5.86198 v -21.01292 q 0,-0.94694 0.63128,-1.62332 0.67639,-0.67638 1.62332,-0.67638 0.94693,0 1.62332,0.67638 0.67638,0.67638 0.67638,1.62332 v 1.53313 l 4.32884,-2.75062 q 1.7135,-1.08221 3.65246,-1.08221 h 2.57025 q 2.75062,0 4.68958,1.93896 1.98405,1.89387 2.07423,4.59939 l 0.54111,16.77427 q 0,0.94693 -0.67638,1.62331 -0.63129,0.67638 -1.57823,0.67638 -0.90184,0 -1.57822,-0.63129 -0.67638,-0.67638 -0.67638,-1.57822 l -0.5862,-16.72917 q -0.0902,-0.85675 -0.72147,-1.48804 -0.5862,-0.63129 -1.48804,-0.63129 h -3.20154 l -7.35001,4.73467 v 14.02365 q 0,0.94693 -0.67638,1.62331 -0.67639,0.67638 -1.62332,0.67638 -0.94693,0 -1.62332,-0.67638 -0.63128,-0.67638 -0.63128,-1.62331 z"
      fill="#ffffff"
      font-size="501.023"
      gorn="0.2.108"
      id="text3132"
      stroke-width="3.42558"
      font-family="OCRA"
    />
    <path
      aria-label="VIN"
      d="m 146.46936,627.66661 v -8.05902 q 0,-0.8905 0.62335,-1.55838 0.66787,-0.66787 1.6029,-0.66787 0.93502,0 1.6029,0.66787 0.66787,0.66788 0.66787,1.55838 v 7.16852 l 6.5897,16.83045 6.5897,-16.83045 v -7.16852 q 0,-0.8905 0.62335,-1.55838 0.66788,-0.66787 1.6029,-0.66787 0.93503,0 1.6029,0.66787 0.66788,0.66788 0.66788,1.55838 v 8.0145 l -8.99405,23.06395 q -0.57883,1.4248 -2.09268,1.4248 -1.55837,0 -2.1372,-1.4248 z m 32.19156,22.17345 q 0,-0.8905 0.62335,-1.55837 0.66787,-0.66788 1.6029,-0.66788 h 6.5897 v -25.73545 h -6.5897 q -0.93503,0 -1.6029,-0.66787 -0.62335,-0.66788 -0.62335,-1.6029 0,-0.8905 0.62335,-1.55838 0.66787,-0.66787 1.6029,-0.66787 h 17.67642 q 0.93503,0 1.6029,0.66787 0.66788,0.66788 0.66788,1.55838 0,0.93502 -0.66788,1.6029 -0.66787,0.66787 -1.6029,0.66787 h -6.5897 v 25.73545 h 6.5897 q 0.93503,0 1.6029,0.66788 0.66788,0.66787 0.66788,1.55837 0,0.93503 -0.66788,1.6029 -0.66787,0.66788 -1.6029,0.66788 h -17.67642 q -0.93503,0 -1.6029,-0.66788 -0.62335,-0.66787 -0.62335,-1.6029 z m 32.19156,0 v -32.45872 h 5.92182 l 11.7546,26.80405 v -24.5778 q 0,-0.8905 0.62335,-1.55838 0.66788,-0.66787 1.6029,-0.66787 0.93503,0 1.6029,0.66787 0.66788,0.66788 0.66788,1.55838 v 32.50325 h -5.96635 l -11.71008,-26.715 v 24.44422 q 0,0.93503 -0.66787,1.6029 -0.66788,0.66788 -1.6029,0.66788 -0.93503,0 -1.6029,-0.66788 -0.62335,-0.66787 -0.62335,-1.6029 z"
      fill="#ffffff"
      font-size="494.722"
      gorn="0.2.109"
      id="text3133"
      stroke-width="3.3825"
      font-family="OCRA"
    />
    <path
      aria-label="GND"
      d="m 244.6037,776.23672 v -12.06628 q 0,-3.07222 1.87005,-5.47657 l 6.0554,-7.8364 q 2.00362,-2.58245 5.343,-2.58245 h 6.63422 q 0.93503,0 1.6029,0.66787 0.66788,0.66788 0.66788,1.55838 0,0.93502 -0.66788,1.6029 -0.66787,0.66787 -1.6029,0.66787 h -6.63422 q -1.11313,0 -1.781,0.8905 l -6.0554,7.74735 q -0.93503,1.2467 -0.93503,2.76055 v 12.06628 q 0,0.93502 0.66788,1.6029 0.66787,0.66787 1.55837,0.66787 h 8.68238 q 0.8905,0 1.55837,-0.66787 0.7124,-0.66788 0.7124,-1.6029 v -4.58608 h -4.40797 q -0.93503,0 -1.6029,-0.62335 -0.62335,-0.66787 -0.62335,-1.6029 0,-0.93502 0.62335,-1.6029 0.66787,-0.66787 1.6029,-0.66787 h 8.905 v 9.0831 q 0,2.76055 -2.00363,4.76417 -2.00362,2.00363 -4.76417,2.00363 h -8.68238 q -2.80507,0 -4.76417,-1.9591 -1.9591,-2.00363 -1.9591,-4.8087 z m 32.19156,4.49702 v -32.45872 h 5.92182 l 11.7546,26.80405 v -24.5778 q 0,-0.8905 0.62335,-1.55838 0.66788,-0.66787 1.6029,-0.66787 0.93503,0 1.6029,0.66787 0.66788,0.66788 0.66788,1.55838 v 32.50325 h -5.96635 l -11.71008,-26.715 v 24.44422 q 0,0.93503 -0.66787,1.6029 -0.66788,0.66788 -1.6029,0.66788 -0.93503,0 -1.6029,-0.66788 -0.62335,-0.66787 -0.62335,-1.6029 z m 32.19156,0 q 0,-0.8905 0.62335,-1.55837 0.66787,-0.66788 1.6029,-0.66788 h 2.18172 v -25.73545 h -2.18172 q -0.93503,0 -1.6029,-0.66787 -0.62335,-0.66788 -0.62335,-1.6029 0,-0.8905 0.62335,-1.55838 0.66787,-0.66787 1.6029,-0.66787 h 8.28165 q 1.9591,0 3.562,1.0686 1.64742,1.0686 2.44887,2.6715 l 4.54155,9.03857 q 1.11313,2.3153 1.11313,4.58608 0,2.27077 -1.11313,4.58607 l -4.49702,9.0831 q -0.7124,1.6029 -2.40435,2.6715 -1.64743,1.02408 -3.65105,1.02408 h -8.28165 q -0.93503,0 -1.6029,-0.66788 -0.62335,-0.66787 -0.62335,-1.6029 z m 8.905,-2.22625 h 1.6029 q 1.38027,0 1.9591,-1.2467 l 4.58607,-9.03857 q 0.62335,-1.51385 0.62335,-2.58245 0,-1.33575 -0.62335,-2.58245 l -4.58607,-9.03858 q -0.57883,-1.2467 -1.9591,-1.2467 h -1.6029 z"
      fill="#ffffff"
      font-size="494.722"
      gorn="0.2.110"
      id="text3133-0"
      stroke-width="3.3825"
      font-family="OCRA"
    />
    <path
      aria-label="SCL"
      d="m 353.79091,646.09996 q 0,-0.93502 0.62335,-1.6029 0.66787,-0.66787 1.6029,-0.66787 0.93502,0 1.6029,0.66787 0.66787,0.66788 0.66787,1.6029 0,0.62335 0.44525,1.0686 0.44525,0.44525 1.0686,0.44525 h 11.08673 q 0.57882,0 0.57882,-0.57882 l -16.65235,-21.46105 q -1.02407,-1.4248 -1.02407,-3.11675 v -0.13358 q 0,-2.00362 1.46932,-3.47295 1.51385,-1.46932 3.562,-1.46932 h 11.08673 q 2.44887,0 4.22987,1.781 1.82553,1.781 1.82553,4.22987 0,0.93503 -0.66788,1.6029 -0.66787,0.66788 -1.6029,0.66788 -0.93502,0 -1.6029,-0.66788 -0.62335,-0.66787 -0.62335,-1.6029 0,-0.57882 -0.48977,-1.02407 -0.44525,-0.48978 -1.0686,-0.48978 h -11.08673 q -0.5343,0 -0.5343,0.44525 v 0.13358 0.1781 l 16.5633,21.28295 q 1.11313,1.33575 1.11313,3.11675 -0.089,2.09267 -1.55838,3.60652 -1.4248,1.46933 -3.51747,1.46933 h -11.08673 q -2.44887,0 -4.22987,-1.781 -1.781,-1.781 -1.781,-4.22988 z m 32.19156,-11.35387 q 0,-2.35983 1.0686,-4.58608 l 4.49702,-9.0831 q 0.7124,-1.6029 2.35983,-2.62697 1.69195,-1.0686 3.69557,-1.0686 h 8.28165 q 0.93503,0 1.6029,0.66787 0.66788,0.66788 0.66788,1.55838 0,0.93502 -0.66788,1.6029 -0.66787,0.66787 -1.6029,0.66787 h -8.28165 q -1.38027,0 -1.9591,1.2467 l -4.58607,9.03858 q -0.57883,1.2467 -0.57883,2.58245 0,1.33575 0.57883,2.58245 l 4.58607,9.03857 q 0.57883,1.2467 1.9591,1.2467 h 8.28165 q 0.93503,0 1.6029,0.66788 0.66788,0.66787 0.66788,1.55837 0,0.93503 -0.66788,1.6029 -0.66787,0.66788 -1.6029,0.66788 h -8.28165 q -1.9591,0 -3.60652,-1.0686 -1.6029,-1.0686 -2.40435,-2.6715 -3.29485,-6.27803 -4.54155,-9.03858 -1.0686,-2.27077 -1.0686,-4.58607 z m 32.19156,17.36475 v -32.50325 q 0,-0.8905 0.62335,-1.55838 0.66787,-0.66787 1.6029,-0.66787 0.93502,0 1.6029,0.66787 0.66787,0.66788 0.66787,1.55838 v 28.00622 h 15.40565 q 0.93503,0 1.6029,0.66788 0.66788,0.66787 0.66788,1.55837 0,0.93503 -0.66788,1.6029 -0.66787,0.66788 -1.6029,0.66788 z"
      fill="#ffffff"
      font-size="494.722"
      gorn="0.2.111"
      id="text3134"
      stroke-width="3.3825"
      font-family="OCRA"
    />
    <path
      aria-label="SDA"
      d="m 445.85448,776.65636 q 0,-0.93502 0.62335,-1.6029 0.66787,-0.66787 1.6029,-0.66787 0.93502,0 1.6029,0.66787 0.66787,0.66788 0.66787,1.6029 0,0.62335 0.44525,1.0686 0.44525,0.44525 1.0686,0.44525 h 11.08673 q 0.57882,0 0.57882,-0.57882 l -16.65235,-21.46105 q -1.02407,-1.4248 -1.02407,-3.11675 v -0.13358 q 0,-2.00362 1.46932,-3.47295 1.51385,-1.46932 3.562,-1.46932 h 11.08673 q 2.44887,0 4.22987,1.781 1.82553,1.781 1.82553,4.22987 0,0.93503 -0.66788,1.6029 -0.66787,0.66788 -1.6029,0.66788 -0.93502,0 -1.6029,-0.66788 -0.62335,-0.66787 -0.62335,-1.6029 0,-0.57882 -0.48977,-1.02407 -0.44525,-0.48978 -1.0686,-0.48978 H 450.8858 q -0.5343,0 -0.5343,0.44525 v 0.13358 0.1781 l 16.5633,21.28295 q 1.11313,1.33575 1.11313,3.11675 -0.0891,2.09267 -1.55838,3.60652 -1.4248,1.46933 -3.51747,1.46933 h -11.08673 q -2.44887,0 -4.22987,-1.781 -1.781,-1.781 -1.781,-4.22988 z m 32.19155,3.7401 q 0,-0.8905 0.62335,-1.55837 0.66788,-0.66788 1.6029,-0.66788 h 2.18173 v -25.73545 h -2.18173 q -0.93502,0 -1.6029,-0.66787 -0.62335,-0.66788 -0.62335,-1.6029 0,-0.8905 0.62335,-1.55838 0.66788,-0.66787 1.6029,-0.66787 h 8.28166 q 1.9591,0 3.562,1.0686 1.64742,1.0686 2.44887,2.6715 l 4.54155,9.03857 q 1.11313,2.3153 1.11313,4.58608 0,2.27077 -1.11313,4.58607 l -4.49702,9.0831 q -0.7124,1.6029 -2.40435,2.6715 -1.64743,1.02408 -3.65105,1.02408 h -8.28166 q -0.93502,0 -1.6029,-0.66788 -0.62335,-0.66787 -0.62335,-1.6029 z m 8.905,-2.22625 h 1.60291 q 1.38027,0 1.9591,-1.2467 l 4.58607,-9.03857 q 0.62335,-1.51385 0.62335,-2.58245 0,-1.33575 -0.62335,-2.58245 l -4.58607,-9.03858 q -0.57883,-1.2467 -1.9591,-1.2467 h -1.60291 z m 23.15299,2.22625 9.03857,-30.85582 q 0.22263,-0.7124 0.80145,-1.15765 0.57883,-0.44525 1.33575,-0.44525 0.75693,0 1.38028,0.44525 0.62335,0.44525 0.80145,1.15765 l 8.99405,30.85582 q 0,0.93503 -0.7124,1.6029 -0.66788,0.66788 -1.6029,0.66788 -0.75693,0 -1.33575,-0.44525 -0.57883,-0.44525 -0.80145,-1.15765 l -1.73648,-5.96635 h -9.92907 l -1.73648,5.96635 q -0.22262,0.7124 -0.84597,1.15765 -0.57883,0.44525 -1.33575,0.44525 -0.93503,0 -1.64743,-0.66788 -0.66787,-0.66787 -0.66787,-1.6029 z m 7.56925,-9.7955 h 7.25757 l -3.65105,-12.37795 z"
      fill="#ffffff"
      font-size="494.722"
      gorn="0.2.112"
      id="text3135"
      stroke-width="3.3825"
      font-family="OCRA"
    />
    <path
      aria-label="VBUS"
      d="m 536.52125,634.34417 v -8.05903 q 0,-0.8905 0.62335,-1.55838 0.66788,-0.66787 1.6029,-0.66787 0.93503,0 1.6029,0.66787 0.66788,0.66788 0.66788,1.55838 v 7.16853 l 6.5897,16.83045 6.5897,-16.83045 v -7.16853 q 0,-0.8905 0.62335,-1.55838 0.66788,-0.66787 1.6029,-0.66787 0.93503,0 1.6029,0.66787 0.66788,0.66788 0.66788,1.55838 v 8.0145 l -8.99406,23.06395 q -0.57882,1.4248 -2.09267,1.4248 -1.55838,0 -2.1372,-1.4248 z m 32.19156,24.44422 v -34.7295 h 13.1794 q 3.65105,0 6.32255,2.6715 2.6715,2.6715 2.6715,6.32255 v 1.64743 q 0,3.96272 -3.11675,6.72327 3.11675,2.76055 3.11675,6.72328 v 1.64742 q 0,3.65105 -2.6715,6.32255 -2.6715,2.6715 -6.32255,2.6715 z m 4.49703,-4.49702 h 8.68237 q 1.82553,0 3.16128,-1.33575 1.33575,-1.38028 1.33575,-3.16128 v -1.64742 q 0,-1.82553 -1.33575,-3.16128 -1.33575,-1.33575 -3.16128,-1.33575 h -8.68237 z m 0,-15.1385 h 8.68237 q 1.82553,0 3.16128,-1.33575 1.33575,-1.33575 1.33575,-3.11675 v -1.64743 q 0,-1.781 -1.33575,-3.11675 -1.33575,-1.38027 -3.16128,-1.38027 h -8.68237 z m 27.69453,12.91225 v -25.77998 q 0,-0.8905 0.62335,-1.55838 0.66788,-0.66787 1.6029,-0.66787 0.93503,0 1.6029,0.66787 0.66788,0.66788 0.66788,1.55838 v 25.77998 q 0,0.93502 0.66787,1.6029 0.66788,0.62335 1.55838,0.62335 h 8.68237 q 0.8905,0 1.55838,-0.66788 0.7124,-0.66787 0.7124,-1.55837 v -25.77998 q 0,-0.8905 0.62335,-1.55838 0.66787,-0.66787 1.6029,-0.66787 0.93502,0 1.6029,0.66787 0.66787,0.66788 0.66787,1.55838 v 25.77998 q 0,2.76055 -2.00362,4.76417 -2.00363,1.9591 -4.76418,1.9591 h -8.68237 q -2.76055,0 -4.76418,-1.9591 -1.9591,-2.00362 -1.9591,-4.76417 z m 32.19156,0.7124 q 0,-0.93503 0.62335,-1.6029 0.66788,-0.66788 1.6029,-0.66788 0.93503,0 1.6029,0.66788 0.66788,0.66787 0.66788,1.6029 0,0.62335 0.44525,1.0686 0.44525,0.44525 1.0686,0.44525 h 11.08672 q 0.57883,0 0.57883,-0.57883 l -16.65235,-21.46105 q -1.02408,-1.4248 -1.02408,-3.11675 v -0.13357 q 0,-2.00363 1.46933,-3.47296 1.51385,-1.46932 3.562,-1.46932 h 11.08672 q 2.44888,0 4.22988,1.781 1.82552,1.781 1.82552,4.22988 0,0.93502 -0.66787,1.6029 -0.66788,0.66787 -1.6029,0.66787 -0.93503,0 -1.6029,-0.66787 -0.62335,-0.66788 -0.62335,-1.6029 0,-0.57883 -0.48978,-1.02408 -0.44525,-0.48977 -1.0686,-0.48977 h -11.08672 q -0.5343,0 -0.5343,0.44525 v 0.13357 0.1781 l 16.5633,21.28295 q 1.11312,1.33575 1.11312,3.11675 -0.089,2.09268 -1.55837,3.60653 -1.4248,1.46932 -3.51748,1.46932 h -11.08672 q -2.44888,0 -4.22988,-1.781 -1.781,-1.781 -1.781,-4.22987 z"
      fill="#ffffff"
      font-size="494.722"
      gorn="0.2.113"
      id="text3136"
      stroke-width="3.3825"
      font-family="OCRA"
    />
    <path
      aria-label="VIN+"
      d="m 746.28078,633.6696 v -8.05902 q 0,-0.8905 0.62335,-1.55838 0.66787,-0.66787 1.6029,-0.66787 0.93502,0 1.6029,0.66787 0.66787,0.66788 0.66787,1.55838 v 7.16852 l 6.5897,16.83046 6.5897,-16.83046 v -7.16852 q 0,-0.8905 0.62335,-1.55838 0.66788,-0.66787 1.6029,-0.66787 0.93503,0 1.6029,0.66787 0.66788,0.66788 0.66788,1.55838 v 8.0145 l -8.99405,23.06395 q -0.57883,1.4248 -2.09268,1.4248 -1.55837,0 -2.1372,-1.4248 z m 32.19155,22.17346 q 0,-0.8905 0.62335,-1.55838 0.66788,-0.66787 1.6029,-0.66787 h 6.5897 v -25.73546 h -6.5897 q -0.93502,0 -1.6029,-0.66787 -0.62335,-0.66788 -0.62335,-1.6029 0,-0.8905 0.62335,-1.55838 0.66788,-0.66787 1.6029,-0.66787 h 17.67643 q 0.93503,0 1.6029,0.66787 0.66788,0.66788 0.66788,1.55838 0,0.93502 -0.66788,1.6029 -0.66787,0.66787 -1.6029,0.66787 h -6.5897 v 25.73546 h 6.5897 q 0.93503,0 1.6029,0.66787 0.66788,0.66788 0.66788,1.55838 0,0.93502 -0.66788,1.6029 -0.66787,0.66787 -1.6029,0.66787 h -17.67643 q -0.93502,0 -1.6029,-0.66787 -0.62335,-0.66788 -0.62335,-1.6029 z m 32.19156,0 v -32.45873 h 5.92183 l 11.7546,26.80405 v -24.5778 q 0,-0.8905 0.62335,-1.55838 0.66787,-0.66787 1.6029,-0.66787 0.93502,0 1.6029,0.66787 0.66787,0.66788 0.66787,1.55838 v 32.50325 h -5.96635 l -11.71007,-26.715 v 24.44423 q 0,0.93502 -0.66788,1.6029 -0.66787,0.66787 -1.6029,0.66787 -0.93502,0 -1.6029,-0.66787 -0.62335,-0.66788 -0.62335,-1.6029 z m 32.81491,-13.49108 q -0.62335,-0.66787 -0.62335,-1.6029 0,-0.93503 0.62335,-1.6029 0.66788,-0.66788 1.6029,-0.66788 h 6.5897 v -6.5897 q 0,-0.8905 0.66788,-1.55837 0.66787,-0.66788 1.6029,-0.66788 0.8905,0 1.55837,0.66788 0.66788,0.66787 0.66788,1.55837 v 6.5897 h 6.5897 q 0.93502,0 1.6029,0.66788 0.66787,0.66787 0.66787,1.6029 0,0.93503 -0.66787,1.6029 -0.66788,0.62335 -1.6029,0.62335 h -6.5897 v 6.5897 q 0,0.93503 -0.66788,1.6029 -0.66787,0.66788 -1.55837,0.66788 -0.93503,0 -1.6029,-0.66788 -0.66788,-0.66787 -0.66788,-1.6029 v -6.5897 h -6.5897 q -0.93502,0 -1.6029,-0.62335 z"
      fill="#ffffff"
      font-size="494.722"
      gorn="0.2.114"
      id="text3137"
      stroke-width="3.3825"
      font-family="OCRA"
    />
    <path
      aria-label="VIN+"
      d="m 787.0316,140.82309 h -8.05902 q -0.8905,0 -1.55838,-0.62335 -0.66787,-0.66787 -0.66787,-1.6029 0,-0.93502 0.66787,-1.6029 0.66788,-0.66787 1.55838,-0.66787 h 7.16852 l 16.83045,-6.5897 -16.83045,-6.5897 h -7.16852 q -0.8905,0 -1.55838,-0.62335 -0.66787,-0.66788 -0.66787,-1.6029 0,-0.93503 0.66787,-1.60291 0.66788,-0.66787 1.55838,-0.66787 h 8.0145 l 23.06395,8.99405 q 1.4248,0.57883 1.4248,2.09268 0,1.55837 -1.4248,2.1372 z m 22.17346,-32.19156 q -0.89051,0 -1.55838,-0.62335 -0.66788,-0.66787 -0.66788,-1.6029 v -6.589698 h -25.73545 v 6.589698 q 0,0.93503 -0.66787,1.6029 -0.66788,0.62335 -1.6029,0.62335 -0.8905,0 -1.55838,-0.62335 -0.66787,-0.66787 -0.66787,-1.6029 V 88.728856 q 0,-0.935025 0.66787,-1.6029 0.66788,-0.667875 1.55838,-0.667875 0.93502,0 1.6029,0.667875 0.66787,0.667875 0.66787,1.6029 v 6.5897 h 25.73545 v -6.5897 q 0,-0.935025 0.66788,-1.6029 0.66787,-0.667875 1.55838,-0.667875 0.93502,0 1.6029,0.667875 0.66787,0.667875 0.66787,1.6029 v 17.676424 q 0,0.93503 -0.66787,1.6029 -0.66788,0.62335 -1.6029,0.62335 z m 0,-32.191557 h -32.45873 v -5.921825 l 26.80405,-11.754601 h -24.5778 q -0.8905,0 -1.55838,-0.62335 -0.66787,-0.667875 -0.66787,-1.6029 0,-0.935025 0.66787,-1.6029 0.66788,-0.667875 1.55838,-0.667875 h 32.50325 v 5.96635 l -26.715,11.710076 h 24.44423 q 0.93502,0 1.6029,0.667875 0.66787,0.667875 0.66787,1.6029 0,0.935025 -0.66787,1.6029 -0.66788,0.62335 -1.6029,0.62335 z M 795.71398,43.625064 q -0.66788,0.62335 -1.6029,0.62335 -0.93503,0 -1.6029,-0.62335 -0.66788,-0.667875 -0.66788,-1.6029 v -6.5897 h -6.5897 q -0.8905,0 -1.55837,-0.667875 -0.66788,-0.667875 -0.66788,-1.6029 0,-0.8905 0.66788,-1.558375 0.66787,-0.667875 1.55837,-0.667875 h 6.5897 v -6.5897 q 0,-0.935026 0.66788,-1.602901 0.66787,-0.667875 1.6029,-0.667875 0.93502,0 1.6029,0.667875 0.62335,0.667875 0.62335,1.602901 v 6.5897 h 6.5897 q 0.93502,0 1.6029,0.667875 0.66787,0.667875 0.66787,1.558375 0,0.935025 -0.66787,1.6029 -0.66788,0.667875 -1.6029,0.667875 h -6.5897 v 6.5897 q 0,0.935025 -0.62335,1.6029 z"
      fill="#ffffff"
      font-size="494.722"
      gorn="0.2.115"
      id="text3137-8"
      stroke-width="3.3825"
      font-family="OCRA"
    />
    <path
      aria-label="VIN-"
      d="m 644.64833,758.22301 v -8.05902 q 0,-0.8905 0.62335,-1.55838 0.66787,-0.66787 1.6029,-0.66787 0.93502,0 1.6029,0.66787 0.66787,0.66788 0.66787,1.55838 v 7.16852 l 6.5897,16.83045 6.58971,-16.83045 v -7.16852 q 0,-0.8905 0.62335,-1.55838 0.66787,-0.66787 1.6029,-0.66787 0.93502,0 1.6029,0.66787 0.66787,0.66788 0.66787,1.55838 v 8.0145 l -8.99405,23.06395 q -0.57883,1.4248 -2.09268,1.4248 -1.55837,0 -2.1372,-1.4248 z m 32.19156,22.17345 q 0,-0.8905 0.62335,-1.55837 0.66787,-0.66788 1.6029,-0.66788 h 6.5897 v -25.73545 h -6.5897 q -0.93503,0 -1.6029,-0.66787 -0.62335,-0.66788 -0.62335,-1.6029 0,-0.8905 0.62335,-1.55838 0.66787,-0.66787 1.6029,-0.66787 h 17.67642 q 0.93503,0 1.6029,0.66787 0.66788,0.66788 0.66788,1.55838 0,0.93502 -0.66788,1.6029 -0.66787,0.66787 -1.6029,0.66787 h -6.5897 v 25.73545 h 6.5897 q 0.93503,0 1.6029,0.66788 0.66788,0.66787 0.66788,1.55837 0,0.93503 -0.66788,1.6029 -0.66787,0.66788 -1.6029,0.66788 h -17.67642 q -0.93503,0 -1.6029,-0.66788 -0.62335,-0.66787 -0.62335,-1.6029 z m 32.19156,0 v -32.45872 h 5.92182 l 11.7546,26.80405 v -24.5778 q 0,-0.8905 0.62335,-1.55838 0.66788,-0.66787 1.6029,-0.66787 0.93503,0 1.6029,0.66787 0.66788,0.66788 0.66788,1.55838 v 32.50325 h -5.96635 l -11.71008,-26.715 v 24.44422 q 0,0.93503 -0.66787,1.6029 -0.66788,0.66788 -1.6029,0.66788 -0.93503,0 -1.6029,-0.66788 -0.62335,-0.66787 -0.62335,-1.6029 z m 32.19156,-13.22392 v -1.87005 q 0,-0.93503 0.62335,-1.6029 0.66787,-0.66788 1.6029,-0.66788 h 17.67642 q 0.93503,0 1.6029,0.66788 0.66788,0.66787 0.66788,1.6029 v 1.87005 q 0,0.93502 -0.66788,1.6029 -0.66787,0.66787 -1.6029,0.66787 h -17.67642 q -0.93503,0 -1.6029,-0.66787 -0.62335,-0.66788 -0.62335,-1.6029 z"
      fill="#ffffff"
      font-size="494.722"
      gorn="0.2.116"
      id="text3138"
      stroke-width="3.3825"
      font-family="OCRA"
    />
    <path
      aria-label="VIN-"
      d="m 293.69429,145.82961 h -8.05902 q -0.8905,0 -1.55838,-0.62335 -0.66787,-0.66788 -0.66787,-1.6029 0,-0.93503 0.66787,-1.6029 0.66788,-0.66788 1.55838,-0.66788 h 7.16852 l 16.83045,-6.5897 -16.83045,-6.5897 h -7.16852 q -0.8905,0 -1.55838,-0.62335 -0.66787,-0.66787 -0.66787,-1.6029 0,-0.93502 0.66787,-1.6029 0.66788,-0.66787 1.55838,-0.66787 h 8.0145 l 23.06395,8.99405 q 1.4248,0.57882 1.4248,2.09267 0,1.55838 -1.4248,2.1372 z m 22.17345,-32.19156 q -0.8905,0 -1.55837,-0.62335 -0.66788,-0.66788 -0.66788,-1.6029 v -6.5897 h -25.73545 v 6.5897 q 0,0.93502 -0.66787,1.6029 -0.66788,0.62335 -1.6029,0.62335 -0.8905,0 -1.55838,-0.62335 -0.66787,-0.66788 -0.66787,-1.6029 V 93.735372 q 0,-0.935025 0.66787,-1.6029 0.66788,-0.667875 1.55838,-0.667875 0.93502,0 1.6029,0.667875 0.66787,0.667875 0.66787,1.6029 v 6.589698 h 25.73545 v -6.589698 q 0,-0.935025 0.66788,-1.6029 0.66787,-0.667875 1.55837,-0.667875 0.93503,0 1.6029,0.667875 0.66788,0.667875 0.66788,1.6029 V 111.4118 q 0,0.93502 -0.66788,1.6029 -0.66787,0.62335 -1.6029,0.62335 z m 0,-32.191561 h -32.45872 v -5.921826 l 26.80405,-11.7546 h -24.5778 q -0.8905,0 -1.55838,-0.62335 -0.66787,-0.667875 -0.66787,-1.6029 0,-0.935025 0.66787,-1.6029 0.66788,-0.667875 1.55838,-0.667875 h 32.50325 v 5.96635 l -26.715,11.710075 h 24.44422 q 0.93503,0 1.6029,0.667875 0.66788,0.667875 0.66788,1.6029 0,0.935026 -0.66788,1.602901 -0.66787,0.62335 -1.6029,0.62335 z M 302.64382,49.25493 h -1.87005 q -0.93503,0 -1.6029,-0.62335 -0.66788,-0.667875 -0.66788,-1.6029 V 29.352254 q 0,-0.935025 0.66788,-1.6029 0.66787,-0.667875 1.6029,-0.667875 h 1.87005 q 0.93502,0 1.6029,0.667875 0.66787,0.667875 0.66787,1.6029 V 47.02868 q 0,0.935025 -0.66787,1.6029 -0.66788,0.62335 -1.6029,0.62335 z"
      fill="#ffffff"
      font-size="494.722"
      gorn="0.2.117"
      id="text3138-4"
      stroke-width="3.3825"
      font-family="OCRA"
    />
    <path
      aria-label="ALRT"
      d="m 850.82426,775.33744 9.03858,-30.85583 q 0.22262,-0.7124 0.80145,-1.15765 0.57882,-0.44525 1.33575,-0.44525 0.75692,0 1.38027,0.44525 0.62335,0.44525 0.80145,1.15765 l 8.99405,30.85583 q 0,0.93503 -0.7124,1.6029 -0.66787,0.66788 -1.6029,0.66788 -0.75692,0 -1.33575,-0.44525 -0.57882,-0.44525 -0.80145,-1.15765 l -1.73647,-5.96635 h -9.92908 l -1.73647,5.96635 q -0.22263,0.7124 -0.84598,1.15765 -0.57882,0.44525 -1.33575,0.44525 -0.93502,0 -1.64742,-0.66788 -0.66788,-0.66787 -0.66788,-1.6029 z m 7.56925,-9.7955 h 7.25758 l -3.65105,-12.37795 z m 24.75589,12.06628 v -32.50326 q 0,-0.8905 0.62335,-1.55837 0.66787,-0.66788 1.6029,-0.66788 0.93502,0 1.6029,0.66788 0.66787,0.66787 0.66787,1.55837 v 28.00623 h 15.40565 q 0.93503,0 1.6029,0.66788 0.66788,0.66787 0.66788,1.55837 0,0.93503 -0.66788,1.6029 -0.66787,0.66788 -1.6029,0.66788 z m 32.19156,-2.27078 v -32.45873 h 15.40565 q 2.76055,0 4.76417,2.00363 2.00363,2.00362 2.00363,4.76417 v 2.3153 q 0,2.76055 -2.04815,4.76418 -2.00363,2.00362 -4.71965,2.00362 h -2.58245 l 9.03857,15.49471 q 0.31168,0.62335 0.31168,1.11312 0,0.93503 -0.66788,1.6029 -0.66787,0.66788 -1.6029,0.66788 -1.29122,0 -1.9591,-1.11313 l -10.37432,-17.76548 h -3.07223 v 16.60783 q 0,0.93503 -0.66787,1.6029 -0.66788,0.66788 -1.6029,0.66788 -0.93503,0 -1.6029,-0.66788 -0.62335,-0.66787 -0.62335,-1.6029 z m 4.49702,-21.10485 h 10.90863 q 0.8905,0 1.55837,-0.66788 0.7124,-0.7124 0.7124,-1.6029 v -2.3153 q 0,-0.93502 -0.7124,-1.6029 -0.66787,-0.66787 -1.55837,-0.66787 h -10.90863 z m 27.69454,-5.343 v -6.01088 h 22.17345 v 6.01088 q 0,0.93502 -0.66788,1.6029 -0.66787,0.66787 -1.6029,0.66787 -0.93502,0 -1.6029,-0.66787 -0.62335,-0.66788 -0.62335,-1.6029 v -1.51385 h -4.36345 v 27.9617 q 0,0.93503 -0.66787,1.6029 -0.66788,0.66788 -1.55838,0.66788 -0.93502,0 -1.6029,-0.66788 -0.66787,-0.66787 -0.66787,-1.6029 v -27.9617 h -4.31893 v 1.51385 q 0,0.93502 -0.66787,1.6029 -0.66788,0.66787 -1.6029,0.66787 -0.93503,0 -1.6029,-0.66787 -0.62335,-0.66788 -0.62335,-1.6029 z"
      fill="#ffffff"
      font-size="494.722"
      gorn="0.2.118"
      id="text3139"
      stroke-width="3.3825"
      font-family="OCRA"
    />
    <path
      aria-label="INA"
      d="m 766.02587,227.14971 q 0,-1.38889 0.97222,-2.43055 1.04166,-1.04167 2.5,-1.04167 h 10.27777 v -40.13886 h -10.27777 q -1.45834,0 -2.5,-1.04167 -0.97222,-1.04166 -0.97222,-2.49999 0,-1.38889 0.97222,-2.43056 1.04166,-1.04166 2.5,-1.04166 h 27.56942 q 1.45833,0 2.5,1.04166 1.04167,1.04167 1.04167,2.43056 0,1.45833 -1.04167,2.49999 -1.04167,1.04167 -2.5,1.04167 h -10.27777 v 40.13886 h 10.27777 q 1.45833,0 2.5,1.04167 1.04167,1.04166 1.04167,2.43055 0,1.45833 -1.04167,2.5 -1.04167,1.04167 -2.5,1.04167 h -27.56942 q -1.45834,0 -2.5,-1.04167 -0.97222,-1.04167 -0.97222,-2.5 z m 50.20827,0 v -50.62496 h 9.2361 l 18.33332,41.80552 v -38.3333 q 0,-1.38889 0.97222,-2.43056 1.04167,-1.04166 2.5,-1.04166 1.45834,0 2.5,1.04166 1.04167,1.04167 1.04167,2.43056 v 50.69441 h -9.30555 l -18.26388,-41.66664 v 38.12497 q 0,1.45833 -1.04166,2.5 -1.04167,1.04167 -2.5,1.04167 -1.45833,0 -2.5,-1.04167 -0.97222,-1.04167 -0.97222,-2.5 z m 49.99994,0 14.09721,-48.12497 q 0.34722,-1.11111 1.25,-1.80555 0.90277,-0.69444 2.08333,-0.69444 1.18055,0 2.15278,0.69444 0.97222,0.69444 1.24999,1.80555 l 14.02777,48.12497 q 0,1.45833 -1.11111,2.5 -1.04166,1.04167 -2.5,1.04167 -1.18055,0 -2.08333,-0.69445 -0.90277,-0.69444 -1.25,-1.80555 l -2.70833,-9.30555 h -15.4861 l -2.70833,9.30555 q -0.34722,1.11111 -1.31944,1.80555 -0.90278,0.69445 -2.08334,0.69445 -1.45833,0 -2.56944,-1.04167 -1.04166,-1.04167 -1.04166,-2.5 z m 11.80554,-15.27777 h 11.31944 l -5.69444,-19.30554 z"
      fill="#ffffff"
      font-size="771.604"
      gorn="0.2.119"
      id="text3140"
      stroke-width="5.27559"
      font-family="OCRA"
    />
    <path
      aria-label="237"
      d="m 766.02587,293.19138 v -23.6111 q 0,-2.84722 2.08333,-4.86111 2.08333,-2.08333 4.93055,-2.08333 h 20.55554 v -16.59721 h -24.0972 q -1.45834,0 -2.5,-1.04167 -0.97222,-1.04166 -0.97222,-2.49999 0,-1.38889 0.97222,-2.43056 1.04166,-1.04166 2.5,-1.04166 h 24.0972 q 2.77778,0 4.86111,2.08333 2.15278,2.08333 2.15278,4.93055 v 16.59721 q 0,2.77778 -2.08334,4.86111 -2.08333,2.08333 -4.93055,2.08333 h -20.55554 v 16.59721 h 24.02776 q 1.45833,0 2.5,1.04167 1.04167,1.04166 1.04167,2.43055 0,1.45833 -1.04167,2.5 -1.04167,1.04167 -2.5,1.04167 z m 50.20827,-3.54167 q 0,-1.38889 0.97222,-2.43055 1.04167,-1.04167 2.5,-1.04167 h 24.0972 v -13.05554 q 0,-1.38889 -1.11111,-2.43056 -1.04166,-1.11111 -2.43055,-1.11111 h -13.68055 q -1.45833,0 -2.5,-0.97222 -0.97222,-1.04167 -0.97222,-2.5 0,-1.45833 0.97222,-2.5 1.04167,-1.04166 2.5,-1.04166 h 13.68055 q 1.45833,0 2.5,-1.04167 1.04166,-1.04167 1.04166,-2.43055 v -13.05555 h -24.0972 q -1.45833,0 -2.5,-1.04167 -0.97222,-1.04166 -0.97222,-2.49999 0,-1.38889 0.97222,-2.43056 1.04167,-1.04166 2.5,-1.04166 h 24.0972 q 2.77778,0 4.86111,2.08333 2.15278,2.08333 2.15278,4.93055 v 13.05555 q 0,4.02777 -2.77778,7.01388 2.77778,2.98611 2.77778,7.01389 v 13.05554 q 0,2.84722 -2.15278,4.93055 -2.08333,2.08334 -4.86111,2.08334 h -24.0972 q -1.45833,0 -2.5,-1.04167 -0.97222,-1.04167 -0.97222,-2.5 z m 50.20827,-44.16663 v -2.98611 q 0,-1.38889 0.97222,-2.43056 1.04167,-1.04166 2.5,-1.04166 h 31.11109 v 21.18054 q 0,1.59722 -1.25,2.70833 l -12.56944,10.69444 v 16.04165 q 0,1.45833 -1.04166,2.5 -1.04167,1.04167 -2.43056,1.04167 -1.45833,0 -2.49999,-1.04167 -1.04167,-1.04167 -1.04167,-2.5 v -17.63888 q 0,-1.59722 1.25,-2.70833 l 12.56943,-10.69443 v -12.56944 h -20.62498 q -0.20833,1.25 -1.18056,2.08333 -0.97222,0.83333 -2.29166,0.83333 -1.45833,0 -2.5,-0.97222 -0.97222,-1.04166 -0.97222,-2.49999 z"
      fill="#ffffff"
      font-size="771.604"
      gorn="0.2.120"
      id="text1"
      stroke-width="5.27559"
      font-family="OCRA"
    />
    <circle
      cx="27.778246"
      cy="355.53934"
      gorn="0.2.121"
      id="connector0pin"
      r="27.778246"
      stroke-width="13.8891"
    />
    <circle
      cx="27.778246"
      cy="418.53207"
      fill="#ff0000"
      gorn="0.2.122"
      id="connector1pin"
      r="27.778246"
      stroke-width="13.8891"
    />
    <circle
      cx="27.778246"
      cy="481.52618"
      fill="#0000ff"
      gorn="0.2.123"
      id="connector2pin"
      r="27.778246"
      stroke-width="13.8891"
    />
    <circle
      cx="27.778246"
      cy="544.47443"
      fill="#ffff00"
      gorn="0.2.124"
      id="connector3pin"
      r="27.778246"
      stroke-width="13.8891"
    />
    <circle
      cx="188.12399"
      cy="700.01184"
      fill="none"
      gorn="0.2.125"
      id="connector4pin"
      r="27.343517"
      stroke="#9a916c"
      stroke-width="15.3155"
    />
    <circle
      cx="288.12567"
      cy="700.01184"
      fill="none"
      gorn="0.2.126"
      id="connector5pin"
      r="27.343517"
      stroke="#9a916c"
      stroke-width="15.3155"
    />
    <circle
      cx="388.12738"
      cy="700.01184"
      fill="none"
      gorn="0.2.127"
      id="connector6pin"
      r="27.343517"
      stroke="#9a916c"
      stroke-width="15.3155"
    />
    <circle
      cx="488.12906"
      cy="700.01184"
      fill="none"
      gorn="0.2.128"
      id="connector7pin"
      r="27.343517"
      stroke="#9a916c"
      stroke-width="15.3155"
    />
    <circle
      cx="588.13074"
      cy="700.01184"
      fill="none"
      gorn="0.2.129"
      id="connector8pin"
      r="27.343517"
      stroke="#9a916c"
      stroke-width="15.3155"
    />
    <circle
      cx="688.13245"
      cy="700.01184"
      fill="none"
      gorn="0.2.130"
      id="connector9pin"
      r="27.343517"
      stroke="#9a916c"
      stroke-width="15.3155"
    />
    <circle
      cx="788.13416"
      cy="700.01184"
      fill="none"
      gorn="0.2.131"
      id="connector10pin"
      r="27.343517"
      stroke="#9a916c"
      stroke-width="15.3155"
    />
    <circle
      cx="888.1358"
      cy="700.01184"
      fill="none"
      gorn="0.2.132"
      id="connector11pin"
      r="27.343517"
      stroke="#9a916c"
      stroke-width="15.3155"
    />
    <circle
      cx="1048.4816"
      cy="544.47443"
      gorn="0.2.133"
      id="connector12pin"
      r="27.778246"
      stroke-width="13.8891"
    />
    <circle
      cx="1048.4816"
      cy="481.48172"
      fill="#ff0000"
      gorn="0.2.134"
      id="connector13pin"
      r="27.778246"
      stroke-width="13.8891"
    />
    <circle
      cx="1048.4816"
      cy="418.48761"
      fill="#0000ff"
      gorn="0.2.135"
      id="connector14pin"
      r="27.778246"
      stroke-width="13.8891"
    />
    <circle
      cx="1048.4816"
      cy="355.53934"
      fill="#ffff00"
      gorn="0.2.136"
      id="connector15pin"
      r="27.778246"
      stroke-width="13.8891"
    />
    <rect
      fill="#8c8c8c"
      gorn="0.2.137"
      height="23.625399"
      id="connector16pin"
      stroke-width="13.8891"
      width="118.11033"
      x="616.86737"
      y="17.950302"
    />
    <rect
      fill="#8c8c8c"
      gorn="0.2.138"
      height="23.625399"
      id="connector17pin"
      stroke-width="13.8891"
      width="118.11033"
      x="479.07614"
      y="17.950302"
    />
    <rect
      fill="#8c8c8c"
      gorn="0.2.139"
      height="23.625399"
      id="connector18pin"
      stroke-width="13.8891"
      width="118.11033"
      x="341.27798"
      y="17.950302"
    />
  </g>
</svg>
